<svg xmlns="http://www.w3.org/2000/svg" xml:space="preserve" fill-rule="evenodd" stroke-linejoin="round" stroke-miterlimit="2" clip-rule="evenodd" viewBox="0 0 687 160">
  <path class="fill-blue-500 dark:fill-blue-700" fill-rule="nonzero" d="M31.984 45.867v4.381c-.347 4.59-.869 9.388-1.217 14.187-.695 8.136-1.738 16.481-1.912 24.826-.174 18.986-.696 38.18.348 57.373.347 5.007 2.607 8.554 6.954 10.64 6.433 3.13 13.213 3.13 19.993.626.696-.208 1.217-.626 1.739-1.043 3.13-2.295 4.694-5.424 4.694-9.388v-9.806c.348-3.338-.174-6.884.696-10.223 1.043-6.05.347-12.309.869-18.359.174-1.669.174-3.13.348-4.798.173-2.712.695-5.425.869-8.137.174-16.481.174-32.754.348-49.236v-3.13h2.955c4.173.21 8.52.21 12.692.21 5.91.208 9.04-1.461 9.214-8.555.522-4.172.695-8.345.87-12.517 0-2.295.173-4.799-.175-7.094-.521-3.755-2.607-5.633-6.258-5.841-2.087 0-4.173 0-6.085.208-9.736.835-19.646.835-29.382.835-1.565 0-2.956-.209-4.347 0-3.477.208-6.78.208-10.083.626-5.564.626-11.127 1.46-16.69 1.877-2.782.418-4.869 2.087-6.607 3.756-.87.626-1.391 1.877-1.565 2.712-.348 1.252-.348 2.503-.348 3.755 0 5.007 0 9.806.174 14.813.174 6.259 2.087 7.928 8.345 7.719 4.347 0 8.693-.209 13.561-.417ZM165.854 79.233c0-.496.348-.992.348-1.488 0-5.456 0-11.078.174-16.534 0-1.157 0-2.15.174-3.307.347-1.818.869-3.802 0-5.621a59.277 59.277 0 0 1-2.434-4.63c-1.391-2.48-3.825-3.802-7.129-4.133-2.781-.33-5.737-.661-8.519-.661-10.431 0-21.558-.662-31.815 1.157-5.39.992-10.78 2.81-14.778 6.118-10.432 8.432-8.172 20.667-8.693 31.248-.522 5.622-1.043 11.243-1.39 16.864a484.747 484.747 0 0 0 0 22.486c.347 7.275-.523 14.715 1.564 21.825 1.043 4.298 2.434 8.762 6.606 11.738 3.651 2.48 8.345 3.307 13.213 3.803 8.52.992 17.038 1.157 25.905.496 7.476-.496 17.212-.661 23.47-4.464 2.783-1.653 4.173-3.803 4.695-6.448.348-3.307.348-6.614.348-9.92 0-3.142-.348-6.118-.87-9.094 0-.992-.347-2.15-1.217-3.141-1.217-1.488-2.955-2.976-5.39-2.81-5.91 0-11.648 0-17.385 1.157-1.912.33-3.13.826-3.477 1.488-1.217 3.306 0 6.282-2.26 8.762-2.434-.165-4.52-.165-6.607-.165h-.695c-3.999-.33-6.085-2.15-6.259-5.125V115.44c0-.33.174-.661.348-.992 1.738-.33 3.303-.496 5.042-.661 2.434 0 5.041 0 7.65-.165 1.738-.166 3.65-.331 5.389-.827 2.608-.496 4.172-1.984 4.694-4.133.174-1.82.348-3.638.348-5.456-.174-3.142-.87-6.283-1.043-9.425 0-3.637-3.651-7.11-9.563-6.778-3.824.165-7.475.165-11.3.33h-2.956V75.761c.348-1.158.87-2.15 1.391-3.307 4.52-1.653 8.867-1.653 13.56-1.323.522 2.48 1.044 4.63 1.392 6.944.174 2.646 1.738 4.464 4.52 5.622 4.173-.165 8.171-.165 12.17-.33 1.39-.166 2.956-.828 4.52-.993 2.782-.33 4.694-1.488 6.26-3.141ZM218.707 70.305c.347 3.472 1.043 6.944.174 10.25-.348 2.15-.174 4.3 1.912 5.787 2.26 1.488 5.042 2.48 8.171 2.48 4.347-.165 8.52-1.322 12.518-2.976 4.346-1.818 6.607-4.795 6.433-8.928-.174-11.408 3.998-26.288-12.866-31.414-6.085-1.818-12.517-1.984-19.124-2.15-11.475-.165-24.514-1.983-34.945 2.646-1.913.827-3.13 1.984-3.999 3.638-2.434 5.456-2.086 12.4-2.956 18.352-.869 7.275-1.39 14.55-1.912 21.824-.522 14.22 0 28.438 2.086 42.657.696 5.29 1.565 10.582 4.173 15.21 2.782 4.796 7.65 9.094 14.082 10.748 3.304.826 7.128.826 10.606.826 12.865.166 27.295 1.654 39.639-2.645 2.956-.992 5.042-2.645 6.433-4.795 1.912-2.81 1.738-5.621 1.564-8.597 0-2.81-.347-5.787 0-8.598.174-3.637 0-7.274-.869-10.912-1.043-4.63-4.868-7.605-10.431-8.432-5.216-.827-10.084 0-14.604 1.984-2.087.827-2.956 2.315-2.782 4.133v8.598c0 1.323-.348 2.48-1.565 3.307h-7.128c-3.825-.166-6.085-1.819-6.433-4.795-.347-2.315-.347-4.464-.347-6.779-.174-5.29 0-10.747-.348-16.037-.174-3.969-1.217-7.937-1.39-11.905-.522-5.786-.696-11.573-.87-17.36 0-1.653.348-3.141 1.39-4.63 4.173-1.653 8.52-1.653 13.388-1.487ZM302.158 119.74c.174 0 .174.165.348.165.695.662-.174 2.811 0 3.638 0 1.984.695 4.133.869 6.117.174 7.936-1.39 16.038 1.043 23.809.696 1.653 1.565 3.306 3.13 4.298 1.564.827 3.303.992 5.215.992 3.825.166 7.476 0 11.127-.33 1.913-.166 3.477-.33 5.042-.992 3.651-1.984 3.303-6.448 3.825-9.59.87-5.125.695-10.581.87-15.707.173-3.306.52-6.613.695-9.92 0-2.645.347-5.456.347-8.101 0-5.622-.174-11.243-.174-16.7-.173-7.605-.173-15.21-.347-22.816 0-3.141-.522-6.282-.348-9.424a89.303 89.303 0 0 0 0-16.699c-.174-3.306-2.26-5.29-6.259-5.952-4.52-.661-9.04-.992-13.735-.33-7.475.826-10.431 3.14-10.431 8.762 0 1.984-.174 3.968-.174 5.787 0 4.133 0 8.267.174 12.4.695 8.432-1.043 16.865-1.39 25.462 0 .165 0 .496-.175.827-4.868.165-9.736.33-14.43.496-.174-.33-.521-.662-.521-.827V84.193c0-12.07-1.044-24.14-1.391-36.209 0-1.818-.174-3.968-2.087-4.96-1.217-.661-2.781-.827-4.172-.827a67.37 67.37 0 0 0-8.171 0c-4.173.166-8.52.662-10.953 2.977-1.391 1.157-1.913 2.645-2.434 4.133-2.434 7.275-2.26 14.88-1.739 22.486.174 6.117-.348 12.235-.348 18.352-.173 6.944-.521 14.054-.347 21.163.695 13.062.869 26.288 2.781 39.35.348 2.48 1.565 4.63 4.173 5.952 5.39 2.976 11.474 3.307 17.733 1.819 1.565-.33 3.304-1.158 3.651-2.646 1.565-4.133 3.13-8.101 2.956-12.4 0-2.81.348-5.456.348-8.267a12.722 12.722 0 0 0 0-5.125c-.348-3.472-.522-7.11.347-10.912 2.608.165 12.692-.662 14.952.661ZM413.079 58.176c0-.626.348-1.252.348-1.878 0-6.885 0-13.978.173-20.863 0-1.46 0-2.712.174-4.172.348-2.295.87-4.799 0-7.094a83.208 83.208 0 0 1-2.434-5.841c-1.39-3.13-3.825-4.799-7.128-5.216-2.782-.417-5.737-.834-8.519-.834-10.431 0-21.558-.835-31.816 1.46-5.39 1.252-10.779 3.547-14.778 7.72-10.431 10.64-8.17 26.078-8.692 39.43-.522 7.093-1.044 14.187-1.391 21.28a771.8 771.8 0 0 0 0 28.374c.347 9.18-.522 18.567 1.564 27.539 1.044 5.424 2.434 11.057 6.607 14.812 3.651 3.13 8.345 4.173 13.213 4.799 8.52 1.251 17.038 1.46 25.905.625 7.476-.625 17.212-.834 23.47-5.632 2.782-2.087 4.173-4.799 4.695-8.137.347-4.173.347-8.345.347-12.518 0-3.964-.347-7.719-.869-11.474 0-1.252-.348-2.712-1.217-3.964-1.217-1.878-2.955-3.756-5.39-3.547-5.91 0-11.648 0-17.385 1.46-1.913.418-3.13 1.044-3.477 1.878-1.217 4.173 0 7.928-2.26 11.057-2.434-.208-4.52-.208-6.607-.208h-.695c-4-.417-6.085-2.712-6.26-6.468v-16.899c0-.417.175-.834.348-1.251 1.739-.418 3.304-.626 5.042-.835 2.434 0 5.042 0 7.65-.208 1.739-.21 3.651-.418 5.39-1.044 2.607-.625 4.172-2.503 4.694-5.215.174-2.295.347-4.59.347-6.885-.173-3.964-.869-7.928-1.043-11.892 0-4.59-3.65-8.97-9.562-8.554-3.825.209-7.476.209-11.3.418h-2.956V53.795c.348-1.46.87-2.713 1.39-4.173 4.521-2.086 8.867-2.086 13.562-1.669.521 3.13 1.043 5.842 1.39 8.762.174 3.338 1.739 5.633 4.52 7.094 4.173-.209 8.172-.209 12.17-.417 1.392-.21 2.956-1.044 4.521-1.252 2.782-.417 4.694-1.878 6.259-3.964ZM453.414 84.06h.347c.522.325.87.649 1.043.973 2.608 3.242 4.695 6.647 7.65 9.565 3.825 3.89 6.78 8.43 10.084 12.645.521.486.695 1.297.695 1.945.174 13.455-.347 26.91.696 40.204.174 3.89 2.434 6.647 6.78 8.106 2.956 1.134 6.259 1.62 9.562 2.107 3.825.324 7.65-.81 11.127-1.783 1.391-.486 2.434-1.46 2.782-2.756.174-1.621.348-3.242.521-4.701.696-4.864 0-9.565.696-14.428 1.043-7.458 1.565-15.077 2.086-22.696.174-9.24 0-18.481 0-27.56 0-8.267-.174-16.373-.174-24.478 0-1.135.174-2.27.348-3.243.174-4.053 1.39-8.105-2.956-11.672-.521-.162-1.564-.486-2.607-.648-5.042-.81-10.084-.973-15.126-.81-3.303.161-5.39 1.458-6.607 3.728-1.912 3.08-2.26 6.322-2.781 9.564-.348 5.026-.522 10.214-1.043 15.239 0 .648-.174 1.297-.174 2.27-5.042-4.864-9.736-9.24-13.909-14.104-4.172-4.864-7.65-10.051-11.474-15.239-.87-.162-1.739-.486-2.782-.648-5.39-.973-10.78-.973-16.343-.649-2.434.162-4.172 1.135-5.215 2.918-.522 1.297-1.391 2.756-1.739 4.215-.695 3.89-1.39 7.944-1.738 11.834-.696 6.323-.87 12.645-1.74 18.806-.694 7.619-1.738 15.076-2.085 22.695-.174 14.753-.522 29.505.521 44.42.348 3.566 2.608 6.322 6.78 7.619 2.956 1.134 6.086 1.62 9.389 2.107 2.955.486 6.085-.648 9.04-1.135 3.478-.648 5.216-2.27 5.39-5.025 0-.486.174-.81.174-1.297l1.565-20.913c.347-5.35 1.043-10.7 1.043-16.049.347-8.916.174-17.832.174-26.91V84.06ZM587.631 112.43c1.217-1.297 2.26-2.431 3.477-3.404 1.913-1.46 2.782-3.08 3.304-4.863.174-.811.174-1.622.695-2.432 2.26-6.323 2.608-12.645 2.434-19.13-.174-5.511-.87-10.861-1.217-16.21-.174-4.378-1.043-8.755-2.955-12.97-1.217-2.594-3.13-4.539-6.26-5.836-5.041-1.621-9.91-2.756-15.473-2.594-4.868.162-9.736.162-14.777.324-6.433 0-13.04 0-19.646.163-4.868 0-10.084.162-15.126.324-3.825.162-6.78 1.783-8.171 4.539-.696 1.135-1.043 2.432-1.043 3.566 0 7.133.174 14.266.347 21.4 0 3.566.348 7.132 0 10.699-.173 7.781-.521 15.563-.521 23.506-.174 5.998.174 11.997.174 17.995 0 3.404-.174 6.809-.348 10.05-.695 5.026.348 9.89 2.782 14.429.695 1.135 1.912 2.432 3.13 3.08 2.433 1.135 4.867 2.27 7.301 2.756 4.173.648 8.345.648 12.518.81 4.694 0 9.214-.324 13.908-.486 3.825-.162 7.824 0 11.823-.324 9.388-.81 25.035-.324 30.25-8.106 1.044-1.297 1.392-2.756 1.74-4.053 1.39-5.35 1.738-10.861 1.564-16.21-.174-4.378 0-10.862-3.477-14.429-1.217-1.297-2.782-2.107-4.868-2.27-.522-.162-1.217-.324-1.565-.324Zm-43.638-10.375c-.521-.162-.87-.324-1.043-.648-.87-.649-.87-1.622-.87-2.594.175-5.188.696-10.538 1.218-15.725.174-1.46-.348-13.942 0-14.104 2.086-.162 4.172-.648 6.259-.81 3.303-.325 6.432-.487 9.91-.649 1.216 0 2.433 0 3.477.162 2.434.486 3.303 1.135 3.477 3.08.347 3.567-.348 6.971-.174 10.538 0 4.377-.174 8.916-1.043 13.293-.174 1.783-.522 3.728-2.434 4.863-.87.487-2.087.81-3.13 1.135-4.346.973-8.866 1.459-13.213 1.621-.87 0-1.565 0-2.434-.162Zm-1.565 32.585c0-.487-.173-.81-.173-.973.521-1.783.695-3.566 1.043-5.512 8.171-1.459 16.168-1.945 24.687-1.297.174.649.522 1.297.522 1.784.348.81 0 1.783-.174 2.431-.521 2.918-2.26 4.053-5.737 4.053-3.651.162-7.128 0-10.78 0l-9.388-.486ZM627.618 97.192v.486c-6.085 12.969-11.822 25.776-17.733 38.745-1.39 3.242-3.13 6.647-3.999 10.051-.347 1.945-.521 3.89-.174 5.836.696 1.945 2.087 3.729 4.347 4.701 1.738.487 3.65.649 5.215.649 2.956 0 5.912.162 8.52-.487 4.172-.648 7.997-2.918 10.779-5.511 2.781-2.594 4.694-5.674 6.432-8.754 3.999-6.81 6.78-13.942 10.258-20.913 3.303-6.809 7.997-13.131 10.779-20.102 3.477-8.43 7.997-16.536 12.865-24.317 2.956-4.377 5.738-8.754 7.65-13.293 1.043-2.108 2.434-4.053 3.13-6.323.347-2.27.521-4.539.173-6.646-.521-1.621-.869-3.243-2.26-4.377-2.434-1.784-5.91-1.946-9.214-1.946-4.173.162-8.867.487-12.344 2.27-2.956 1.621-5.042 4.053-6.954 6.484l-6.26 8.268c-1.738 2.432-3.476 5.188-5.736 7.457-.87-.81-1.739-1.459-2.26-2.107-3.13-4.864-7.303-9.078-10.084-14.104-1.739-3.08-5.216-6.97-9.215-8.106-1.564-.648-3.65-.648-5.563-.648-2.956 0-5.737.162-8.52.486-3.998.324-8.344 1.297-9.909 4.053-1.217 2.432.522 5.188 1.913 7.62 9.214 13.617 18.428 27.072 28.164 40.528Z"/>
  <path class="fill-java-500 dark:fill-java-700" fill-rule="nonzero" d="M26.984 40.867v4.381c-.347 4.59-.869 9.388-1.217 14.187-.695 8.136-1.738 16.481-1.912 24.826-.174 18.986-.696 38.18.348 57.373.347 5.007 2.607 8.554 6.954 10.64 6.433 3.13 13.213 3.13 19.993.626.696-.208 1.217-.626 1.739-1.043 3.13-2.295 4.694-5.424 4.694-9.388v-9.806c.348-3.338-.174-6.884.696-10.223 1.043-6.05.347-12.309.869-18.359.174-1.669.174-3.13.348-4.798.173-2.712.695-5.425.869-8.137.174-16.481.174-32.754.348-49.236v-3.13h2.955c4.173.21 8.52.21 12.692.21 5.91.208 9.04-1.461 9.214-8.555.522-4.172.695-8.345.87-12.517 0-2.295.173-4.799-.175-7.094-.521-3.755-2.607-5.633-6.258-5.841-2.087 0-4.173 0-6.085.208-9.736.835-19.646.835-29.382.835-1.565 0-2.956-.209-4.347 0-3.477.208-6.78.208-10.083.626-5.564.626-11.127 1.46-16.69 1.877-2.782.418-4.869 2.087-6.607 3.756-.87.626-1.391 1.877-1.565 2.712-.348 1.252-.348 2.503-.348 3.755 0 5.007 0 9.806.174 14.813.174 6.259 2.087 7.928 8.345 7.719 4.347 0 8.693-.209 13.561-.417ZM160.854 74.233c0-.496.348-.992.348-1.488 0-5.456 0-11.078.174-16.534 0-1.157 0-2.15.174-3.307.347-1.818.869-3.802 0-5.621a59.277 59.277 0 0 1-2.434-4.63c-1.391-2.48-3.825-3.802-7.129-4.133-2.781-.33-5.737-.661-8.519-.661-10.431 0-21.558-.662-31.815 1.157-5.39.992-10.78 2.81-14.778 6.118-10.432 8.432-8.172 20.667-8.693 31.248-.522 5.622-1.043 11.243-1.39 16.864a484.747 484.747 0 0 0 0 22.486c.347 7.275-.523 14.715 1.564 21.825 1.043 4.298 2.434 8.762 6.606 11.738 3.651 2.48 8.345 3.307 13.213 3.803 8.52.992 17.038 1.157 25.905.496 7.476-.496 17.212-.661 23.47-4.464 2.783-1.653 4.173-3.803 4.695-6.448.348-3.307.348-6.614.348-9.92 0-3.142-.348-6.118-.87-9.094 0-.992-.347-2.15-1.217-3.141-1.217-1.488-2.955-2.976-5.39-2.81-5.91 0-11.648 0-17.385 1.157-1.912.33-3.13.826-3.477 1.488-1.217 3.306 0 6.282-2.26 8.762-2.434-.165-4.52-.165-6.607-.165h-.695c-3.999-.33-6.085-2.15-6.259-5.125V110.44c0-.33.174-.661.348-.992 1.738-.33 3.303-.496 5.042-.661 2.434 0 5.041 0 7.65-.165 1.738-.166 3.65-.331 5.389-.827 2.608-.496 4.172-1.984 4.694-4.133.174-1.82.348-3.638.348-5.456-.174-3.142-.87-6.283-1.043-9.425 0-3.637-3.651-7.11-9.563-6.778-3.824.165-7.475.165-11.3.33h-2.956V70.761c.348-1.158.87-2.15 1.391-3.307 4.52-1.653 8.867-1.653 13.56-1.323.522 2.48 1.044 4.63 1.392 6.944.174 2.646 1.738 4.464 4.52 5.622 4.173-.165 8.171-.165 12.17-.33 1.39-.166 2.956-.828 4.52-.993 2.782-.33 4.694-1.488 6.26-3.141ZM213.707 65.305c.347 3.472 1.043 6.944.174 10.25-.348 2.15-.174 4.3 1.912 5.787 2.26 1.488 5.042 2.48 8.171 2.48 4.347-.165 8.52-1.322 12.518-2.976 4.346-1.818 6.607-4.795 6.433-8.928-.174-11.408 3.998-26.288-12.866-31.414-6.085-1.818-12.517-1.984-19.124-2.15-11.475-.165-24.514-1.983-34.945 2.646-1.913.827-3.13 1.984-3.999 3.638-2.434 5.456-2.086 12.4-2.956 18.352-.869 7.275-1.39 14.55-1.912 21.824-.522 14.22 0 28.438 2.086 42.657.696 5.29 1.565 10.582 4.173 15.21 2.782 4.796 7.65 9.094 14.082 10.748 3.304.826 7.128.826 10.606.826 12.865.166 27.295 1.654 39.639-2.645 2.956-.992 5.042-2.645 6.433-4.795 1.912-2.81 1.738-5.621 1.564-8.597 0-2.81-.347-5.787 0-8.598.174-3.637 0-7.274-.869-10.912-1.043-4.63-4.868-7.605-10.431-8.432-5.216-.827-10.084 0-14.604 1.984-2.087.827-2.956 2.315-2.782 4.133v8.598c0 1.323-.348 2.48-1.565 3.307h-7.128c-3.825-.166-6.085-1.819-6.433-4.795-.347-2.315-.347-4.464-.347-6.779-.174-5.29 0-10.747-.348-16.037-.174-3.969-1.217-7.937-1.39-11.905-.522-5.786-.696-11.573-.87-17.36 0-1.653.348-3.141 1.39-4.63 4.173-1.653 8.52-1.653 13.388-1.487ZM297.158 114.74c.174 0 .174.165.348.165.695.662-.174 2.811 0 3.638 0 1.984.695 4.133.869 6.117.174 7.936-1.39 16.038 1.043 23.809.696 1.653 1.565 3.306 3.13 4.298 1.564.827 3.303.992 5.215.992 3.825.166 7.476 0 11.127-.33 1.913-.166 3.477-.33 5.042-.992 3.651-1.984 3.303-6.448 3.825-9.59.87-5.125.695-10.581.87-15.707.173-3.306.52-6.613.695-9.92 0-2.645.347-5.456.347-8.101 0-5.622-.174-11.243-.174-16.7-.173-7.605-.173-15.21-.347-22.816 0-3.141-.522-6.282-.348-9.424a89.303 89.303 0 0 0 0-16.699c-.174-3.306-2.26-5.29-6.259-5.952-4.52-.661-9.04-.992-13.735-.33-7.475.826-10.431 3.14-10.431 8.762 0 1.984-.174 3.968-.174 5.787 0 4.133 0 8.267.174 12.4.695 8.432-1.043 16.865-1.39 25.462 0 .165 0 .496-.175.827-4.868.165-9.736.33-14.43.496-.174-.33-.521-.662-.521-.827V79.193c0-12.07-1.044-24.14-1.391-36.209 0-1.818-.174-3.968-2.087-4.96-1.217-.661-2.781-.827-4.172-.827a67.37 67.37 0 0 0-8.171 0c-4.173.166-8.52.662-10.953 2.977-1.391 1.157-1.913 2.645-2.434 4.133-2.434 7.275-2.26 14.88-1.739 22.486.174 6.117-.348 12.235-.348 18.352-.173 6.944-.521 14.054-.347 21.163.695 13.062.869 26.288 2.781 39.35.348 2.48 1.565 4.63 4.173 5.952 5.39 2.976 11.474 3.307 17.733 1.819 1.565-.33 3.304-1.158 3.651-2.646 1.565-4.133 3.13-8.101 2.956-12.4 0-2.81.348-5.456.348-8.267a12.722 12.722 0 0 0 0-5.125c-.348-3.472-.522-7.11.347-10.912 2.608.165 12.692-.662 14.952.661ZM408.079 53.176c0-.626.348-1.252.348-1.878 0-6.885 0-13.978.173-20.863 0-1.46 0-2.712.174-4.172.348-2.295.87-4.799 0-7.094a83.208 83.208 0 0 1-2.434-5.841c-1.39-3.13-3.825-4.799-7.128-5.216-2.782-.417-5.737-.834-8.519-.834-10.431 0-21.558-.835-31.816 1.46-5.39 1.252-10.779 3.547-14.778 7.72-10.431 10.64-8.17 26.078-8.692 39.43-.522 7.093-1.044 14.187-1.391 21.28a771.8 771.8 0 0 0 0 28.374c.347 9.18-.522 18.567 1.564 27.539 1.044 5.424 2.434 11.057 6.607 14.812 3.651 3.13 8.345 4.173 13.213 4.799 8.52 1.251 17.038 1.46 25.905.625 7.476-.625 17.212-.834 23.47-5.632 2.782-2.087 4.173-4.799 4.695-8.137.347-4.173.347-8.345.347-12.518 0-3.964-.347-7.719-.869-11.474 0-1.252-.348-2.712-1.217-3.964-1.217-1.878-2.955-3.756-5.39-3.547-5.91 0-11.648 0-17.385 1.46-1.913.418-3.13 1.044-3.477 1.878-1.217 4.173 0 7.928-2.26 11.057-2.434-.208-4.52-.208-6.607-.208h-.695c-4-.417-6.085-2.712-6.26-6.468V98.865c0-.417.175-.834.348-1.251 1.739-.418 3.304-.626 5.042-.835 2.434 0 5.042 0 7.65-.208 1.739-.21 3.651-.418 5.39-1.044 2.607-.625 4.172-2.503 4.694-5.215.174-2.295.347-4.59.347-6.885-.173-3.964-.869-7.928-1.043-11.892 0-4.59-3.65-8.97-9.562-8.554-3.825.209-7.476.209-11.3.418h-2.956V48.795c.348-1.46.87-2.713 1.39-4.173 4.521-2.086 8.867-2.086 13.562-1.669.521 3.13 1.043 5.842 1.39 8.762.174 3.338 1.739 5.633 4.52 7.094 4.173-.209 8.172-.209 12.17-.417 1.392-.21 2.956-1.044 4.521-1.252 2.782-.417 4.694-1.878 6.259-3.964ZM448.414 79.06h.347c.522.325.87.649 1.043.973 2.608 3.242 4.695 6.647 7.65 9.565 3.825 3.89 6.78 8.43 10.084 12.645.521.486.695 1.297.695 1.945.174 13.455-.347 26.91.696 40.204.174 3.89 2.434 6.647 6.78 8.106 2.956 1.134 6.259 1.62 9.562 2.107 3.825.324 7.65-.81 11.127-1.783 1.391-.486 2.434-1.46 2.782-2.756.174-1.621.348-3.242.521-4.701.696-4.864 0-9.565.696-14.428 1.043-7.458 1.565-15.077 2.086-22.696.174-9.24 0-18.481 0-27.56 0-8.267-.174-16.373-.174-24.478 0-1.135.174-2.27.348-3.243.174-4.053 1.39-8.105-2.956-11.672-.521-.162-1.564-.486-2.607-.648-5.042-.81-10.084-.973-15.126-.81-3.303.161-5.39 1.458-6.607 3.728-1.912 3.08-2.26 6.322-2.781 9.564-.348 5.026-.522 10.214-1.043 15.239 0 .648-.174 1.297-.174 2.27-5.042-4.864-9.736-9.24-13.909-14.104-4.172-4.864-7.65-10.051-11.474-15.239-.87-.162-1.739-.486-2.782-.648-5.39-.973-10.78-.973-16.343-.649-2.434.162-4.172 1.135-5.215 2.918-.522 1.297-1.391 2.756-1.739 4.215-.695 3.89-1.39 7.944-1.738 11.834-.696 6.323-.87 12.645-1.74 18.806-.694 7.619-1.738 15.076-2.085 22.695-.174 14.753-.522 29.505.521 44.42.348 3.566 2.608 6.322 6.78 7.619 2.956 1.134 6.086 1.62 9.389 2.107 2.955.486 6.085-.648 9.04-1.135 3.478-.648 5.216-2.27 5.39-5.025 0-.486.174-.81.174-1.297l1.565-20.913c.347-5.35 1.043-10.7 1.043-16.049.347-8.916.174-17.832.174-26.91V79.06ZM582.631 107.43c1.217-1.297 2.26-2.431 3.477-3.404 1.913-1.46 2.782-3.08 3.304-4.863.174-.811.174-1.622.695-2.432 2.26-6.323 2.608-12.645 2.434-19.13-.174-5.511-.87-10.861-1.217-16.21-.174-4.378-1.043-8.755-2.955-12.97-1.217-2.594-3.13-4.539-6.26-5.836-5.041-1.621-9.91-2.756-15.473-2.594-4.868.162-9.736.162-14.777.324-6.433 0-13.04 0-19.646.163-4.868 0-10.084.162-15.126.324-3.825.162-6.78 1.783-8.171 4.539-.696 1.135-1.043 2.432-1.043 3.566 0 7.133.174 14.266.347 21.4 0 3.566.348 7.132 0 10.699-.173 7.781-.521 15.563-.521 23.506-.174 5.998.174 11.997.174 17.995 0 3.404-.174 6.809-.348 10.05-.695 5.026.348 9.89 2.782 14.429.695 1.135 1.912 2.432 3.13 3.08 2.433 1.135 4.867 2.27 7.301 2.756 4.173.648 8.345.648 12.518.81 4.694 0 9.214-.324 13.908-.486 3.825-.162 7.824 0 11.823-.324 9.388-.81 25.035-.324 30.25-8.106 1.044-1.297 1.392-2.756 1.74-4.053 1.39-5.35 1.738-10.861 1.564-16.21-.174-4.378 0-10.862-3.477-14.429-1.217-1.297-2.782-2.107-4.868-2.27-.522-.162-1.217-.324-1.565-.324Zm-43.638-10.375c-.521-.162-.87-.324-1.043-.648-.87-.649-.87-1.622-.87-2.594.175-5.188.696-10.538 1.218-15.725.174-1.46-.348-13.942 0-14.104 2.086-.162 4.172-.648 6.259-.81 3.303-.325 6.432-.487 9.91-.649 1.216 0 2.433 0 3.477.162 2.434.486 3.303 1.135 3.477 3.08.347 3.567-.348 6.971-.174 10.538 0 4.377-.174 8.916-1.043 13.293-.174 1.783-.522 3.728-2.434 4.863-.87.487-2.087.81-3.13 1.135-4.346.973-8.866 1.459-13.213 1.621-.87 0-1.565 0-2.434-.162Zm-1.565 32.585c0-.487-.173-.81-.173-.973.521-1.783.695-3.566 1.043-5.512 8.171-1.459 16.168-1.945 24.687-1.297.174.649.522 1.297.522 1.784.348.81 0 1.783-.174 2.431-.521 2.918-2.26 4.053-5.737 4.053-3.651.162-7.128 0-10.78 0l-9.388-.486ZM622.618 92.192v.486c-6.085 12.969-11.822 25.776-17.733 38.745-1.39 3.242-3.13 6.647-3.999 10.051-.347 1.945-.521 3.89-.174 5.836.696 1.945 2.087 3.729 4.347 4.701 1.738.487 3.65.649 5.215.649 2.956 0 5.912.162 8.52-.487 4.172-.648 7.997-2.918 10.779-5.511 2.781-2.594 4.694-5.674 6.432-8.754 3.999-6.81 6.78-13.942 10.258-20.913 3.303-6.809 7.997-13.131 10.779-20.102 3.477-8.43 7.997-16.536 12.865-24.317 2.956-4.377 5.738-8.754 7.65-13.293 1.043-2.108 2.434-4.053 3.13-6.323.347-2.27.521-4.539.173-6.646-.521-1.621-.869-3.243-2.26-4.377-2.434-1.784-5.91-1.946-9.214-1.946-4.173.162-8.867.487-12.344 2.27-2.956 1.621-5.042 4.053-6.954 6.484l-6.26 8.268c-1.738 2.432-3.476 5.188-5.736 7.457-.87-.81-1.739-1.459-2.26-2.107-3.13-4.864-7.303-9.078-10.084-14.104-1.739-3.08-5.216-6.97-9.215-8.106-1.564-.648-3.65-.648-5.563-.648-2.956 0-5.737.162-8.52.486-3.998.324-8.344 1.297-9.909 4.053-1.217 2.432.522 5.188 1.913 7.62 9.214 13.617 18.428 27.072 28.164 40.528Z"/>
  <path class="fill-purple-950 dark:fill-purple-50" fill-rule="nonzero" d="M21.984 35.867v4.381c-.347 4.59-.869 9.388-1.217 14.187-.695 8.136-1.738 16.481-1.912 24.826-.174 18.986-.696 38.18.348 57.373.347 5.007 2.607 8.554 6.954 10.64 6.433 3.13 13.213 3.13 19.993.626.696-.208 1.217-.626 1.739-1.043 3.13-2.295 4.694-5.424 4.694-9.388v-9.806c.348-3.338-.174-6.884.696-10.223 1.043-6.05.347-12.309.869-18.359.174-1.669.174-3.13.348-4.798.173-2.712.695-5.425.869-8.137.174-16.481.174-32.754.348-49.236v-3.13h2.955c4.173.21 8.52.21 12.692.21 5.91.208 9.04-1.461 9.214-8.555.522-4.172.695-8.345.87-12.517 0-2.295.173-4.799-.175-7.094-.521-3.755-2.607-5.633-6.258-5.841-2.087 0-4.173 0-6.085.208-9.736.835-19.646.835-29.382.835-1.565 0-2.956-.209-4.347 0-3.477.208-6.78.208-10.083.626-5.564.626-11.127 1.46-16.69 1.877-2.782.418-4.869 2.087-6.607 3.756C.947 7.91.426 9.162.252 9.997c-.348 1.252-.348 2.503-.348 3.755 0 5.007 0 9.806.174 14.813.174 6.259 2.087 7.928 8.345 7.719 4.347 0 8.693-.209 13.561-.417ZM155.854 69.233c0-.496.348-.992.348-1.488 0-5.456 0-11.078.174-16.534 0-1.157 0-2.15.174-3.307.347-1.818.869-3.802 0-5.621a59.277 59.277 0 0 1-2.434-4.63c-1.391-2.48-3.825-3.802-7.129-4.133-2.781-.33-5.737-.661-8.519-.661-10.431 0-21.558-.662-31.815 1.157-5.39.992-10.78 2.81-14.778 6.118-10.432 8.432-8.172 20.667-8.693 31.248-.522 5.622-1.043 11.243-1.39 16.864a484.747 484.747 0 0 0 0 22.486c.347 7.275-.523 14.715 1.564 21.825 1.043 4.298 2.434 8.762 6.606 11.738 3.651 2.48 8.345 3.307 13.213 3.803 8.52.992 17.038 1.157 25.905.496 7.476-.496 17.212-.661 23.47-4.464 2.783-1.653 4.173-3.803 4.695-6.448.348-3.307.348-6.614.348-9.92 0-3.142-.348-6.118-.87-9.094 0-.992-.347-2.15-1.217-3.141-1.217-1.488-2.955-2.976-5.39-2.81-5.91 0-11.648 0-17.385 1.157-1.912.33-3.13.826-3.477 1.488-1.217 3.306 0 6.282-2.26 8.762-2.434-.165-4.52-.165-6.607-.165h-.695c-3.999-.33-6.085-2.15-6.259-5.125V105.44c0-.33.174-.661.348-.992 1.738-.33 3.303-.496 5.042-.661 2.434 0 5.041 0 7.65-.165 1.738-.166 3.65-.331 5.389-.827 2.608-.496 4.172-1.984 4.694-4.133.174-1.82.348-3.638.348-5.456-.174-3.142-.87-6.283-1.043-9.425 0-3.637-3.651-7.11-9.563-6.778-3.824.165-7.475.165-11.3.33h-2.956V65.761c.348-1.158.87-2.15 1.391-3.307 4.52-1.653 8.867-1.653 13.56-1.323.522 2.48 1.044 4.63 1.392 6.944.174 2.646 1.738 4.464 4.52 5.622 4.173-.165 8.171-.165 12.17-.33 1.39-.166 2.956-.828 4.52-.993 2.782-.33 4.694-1.488 6.26-3.141ZM208.707 60.305c.347 3.472 1.043 6.944.174 10.25-.348 2.15-.174 4.3 1.912 5.787 2.26 1.488 5.042 2.48 8.171 2.48 4.347-.165 8.52-1.322 12.518-2.976 4.346-1.818 6.607-4.795 6.433-8.928-.174-11.408 3.998-26.288-12.866-31.414-6.085-1.818-12.517-1.984-19.124-2.15-11.475-.165-24.514-1.983-34.945 2.646-1.913.827-3.13 1.984-3.999 3.638-2.434 5.456-2.086 12.4-2.956 18.352-.869 7.275-1.39 14.55-1.912 21.824-.522 14.22 0 28.438 2.086 42.657.696 5.29 1.565 10.582 4.173 15.21 2.782 4.796 7.65 9.094 14.082 10.748 3.304.826 7.128.826 10.606.826 12.865.166 27.295 1.654 39.639-2.645 2.956-.992 5.042-2.645 6.433-4.795 1.912-2.81 1.738-5.621 1.564-8.597 0-2.81-.347-5.787 0-8.598.174-3.637 0-7.274-.869-10.912-1.043-4.63-4.868-7.605-10.431-8.432-5.216-.827-10.084 0-14.604 1.984-2.087.827-2.956 2.315-2.782 4.133v8.598c0 1.323-.348 2.48-1.565 3.307h-7.128c-3.825-.166-6.085-1.819-6.433-4.795-.347-2.315-.347-4.464-.347-6.779-.174-5.29 0-10.747-.348-16.037-.174-3.969-1.217-7.937-1.39-11.905-.522-5.786-.696-11.573-.87-17.36 0-1.653.348-3.141 1.39-4.63 4.173-1.653 8.52-1.653 13.388-1.487ZM292.158 109.74c.174 0 .174.165.348.165.695.662-.174 2.811 0 3.638 0 1.984.695 4.133.869 6.117.174 7.936-1.39 16.038 1.043 23.809.696 1.653 1.565 3.306 3.13 4.298 1.564.827 3.303.992 5.215.992 3.825.166 7.476 0 11.127-.33 1.913-.166 3.477-.33 5.042-.992 3.651-1.984 3.303-6.448 3.825-9.59.87-5.125.695-10.581.87-15.707.173-3.306.52-6.613.695-9.92 0-2.645.347-5.456.347-8.101 0-5.622-.174-11.243-.174-16.7-.173-7.605-.173-15.21-.347-22.816 0-3.141-.522-6.282-.348-9.424a89.303 89.303 0 0 0 0-16.699c-.174-3.306-2.26-5.29-6.259-5.952-4.52-.661-9.04-.992-13.735-.33-7.475.826-10.431 3.14-10.431 8.762 0 1.984-.174 3.968-.174 5.787 0 4.133 0 8.267.174 12.4.695 8.432-1.043 16.865-1.39 25.462 0 .165 0 .496-.175.827-4.868.165-9.736.33-14.43.496-.174-.33-.521-.662-.521-.827V74.193c0-12.07-1.044-24.14-1.391-36.209 0-1.818-.174-3.968-2.087-4.96-1.217-.661-2.781-.827-4.172-.827a67.37 67.37 0 0 0-8.171 0c-4.173.166-8.52.662-10.953 2.977-1.391 1.157-1.913 2.645-2.434 4.133-2.434 7.275-2.26 14.88-1.739 22.486.174 6.117-.348 12.235-.348 18.352-.173 6.944-.521 14.054-.347 21.163.695 13.062.869 26.288 2.781 39.35.348 2.48 1.565 4.63 4.173 5.952 5.39 2.976 11.474 3.307 17.733 1.819 1.565-.33 3.304-1.158 3.651-2.646 1.565-4.133 3.13-8.101 2.956-12.4 0-2.81.348-5.456.348-8.267a12.722 12.722 0 0 0 0-5.125c-.348-3.472-.522-7.11.347-10.912 2.608.165 12.692-.662 14.952.661ZM403.079 48.176c0-.626.348-1.252.348-1.878 0-6.885 0-13.978.173-20.863 0-1.46 0-2.712.174-4.172.348-2.295.87-4.799 0-7.094a83.208 83.208 0 0 1-2.434-5.841c-1.39-3.13-3.825-4.799-7.128-5.216-2.782-.417-5.737-.834-8.519-.834-10.431 0-21.558-.835-31.816 1.46-5.39 1.252-10.779 3.547-14.778 7.72-10.431 10.64-8.17 26.078-8.692 39.43-.522 7.093-1.044 14.187-1.391 21.28a771.8 771.8 0 0 0 0 28.374c.347 9.18-.522 18.567 1.564 27.539 1.044 5.424 2.434 11.057 6.607 14.812 3.651 3.13 8.345 4.173 13.213 4.799 8.52 1.251 17.038 1.46 25.905.625 7.476-.625 17.212-.834 23.47-5.632 2.782-2.087 4.173-4.799 4.695-8.137.347-4.173.347-8.345.347-12.518 0-3.964-.347-7.719-.869-11.474 0-1.252-.348-2.712-1.217-3.964-1.217-1.878-2.955-3.756-5.39-3.547-5.91 0-11.648 0-17.385 1.46-1.913.418-3.13 1.044-3.477 1.878-1.217 4.173 0 7.928-2.26 11.057-2.434-.208-4.52-.208-6.607-.208h-.695c-4-.417-6.085-2.712-6.26-6.468V93.865c0-.417.175-.834.348-1.251 1.739-.418 3.304-.626 5.042-.835 2.434 0 5.042 0 7.65-.208 1.739-.21 3.651-.418 5.39-1.044 2.607-.625 4.172-2.503 4.694-5.215.174-2.295.347-4.59.347-6.885-.173-3.964-.869-7.928-1.043-11.892 0-4.59-3.65-8.97-9.562-8.554-3.825.209-7.476.209-11.3.418h-2.956V43.795c.348-1.46.87-2.713 1.39-4.173 4.521-2.086 8.867-2.086 13.562-1.669.521 3.13 1.043 5.842 1.39 8.762.174 3.338 1.739 5.633 4.52 7.094 4.173-.209 8.172-.209 12.17-.417 1.392-.21 2.956-1.044 4.521-1.252 2.782-.417 4.694-1.878 6.259-3.964ZM443.414 74.06h.347c.522.325.87.649 1.043.973 2.608 3.242 4.695 6.647 7.65 9.565 3.825 3.89 6.78 8.43 10.084 12.645.521.486.695 1.297.695 1.945.174 13.455-.347 26.91.696 40.204.174 3.89 2.434 6.647 6.78 8.106 2.956 1.134 6.259 1.62 9.562 2.107 3.825.324 7.65-.81 11.127-1.783 1.391-.486 2.434-1.46 2.782-2.756.174-1.621.348-3.242.521-4.701.696-4.864 0-9.565.696-14.428 1.043-7.458 1.565-15.077 2.086-22.696.174-9.24 0-18.481 0-27.56 0-8.267-.174-16.373-.174-24.478 0-1.135.174-2.27.348-3.243.174-4.053 1.39-8.105-2.956-11.672-.521-.162-1.564-.486-2.607-.648-5.042-.81-10.084-.973-15.126-.81-3.303.161-5.39 1.458-6.607 3.728-1.912 3.08-2.26 6.322-2.781 9.564-.348 5.026-.522 10.214-1.043 15.239 0 .648-.174 1.297-.174 2.27-5.042-4.864-9.736-9.24-13.909-14.104-4.172-4.864-7.65-10.051-11.474-15.239-.87-.162-1.739-.486-2.782-.648-5.39-.973-10.78-.973-16.343-.649-2.434.162-4.172 1.135-5.215 2.918-.522 1.297-1.391 2.756-1.739 4.215-.695 3.89-1.39 7.944-1.738 11.834-.696 6.323-.87 12.645-1.74 18.806-.694 7.619-1.738 15.076-2.085 22.695-.174 14.753-.522 29.505.521 44.42.348 3.566 2.608 6.322 6.78 7.619 2.956 1.134 6.086 1.62 9.389 2.107 2.955.486 6.085-.648 9.04-1.135 3.478-.648 5.216-2.27 5.39-5.025 0-.486.174-.81.174-1.297l1.565-20.913c.347-5.35 1.043-10.7 1.043-16.049.347-8.916.174-17.832.174-26.91V74.06ZM577.631 102.43c1.217-1.297 2.26-2.431 3.477-3.404 1.913-1.46 2.782-3.08 3.304-4.863.174-.811.174-1.622.695-2.432 2.26-6.323 2.608-12.645 2.434-19.13-.174-5.511-.87-10.861-1.217-16.21-.174-4.378-1.043-8.755-2.955-12.97-1.217-2.594-3.13-4.539-6.26-5.836-5.041-1.621-9.91-2.756-15.473-2.594-4.868.162-9.736.162-14.777.324-6.433 0-13.04 0-19.646.163-4.868 0-10.084.162-15.126.324-3.825.162-6.78 1.783-8.171 4.539-.696 1.135-1.043 2.432-1.043 3.566 0 7.133.174 14.266.347 21.4 0 3.566.348 7.132 0 10.699-.173 7.781-.521 15.563-.521 23.506-.174 5.998.174 11.997.174 17.995 0 3.404-.174 6.809-.348 10.05-.695 5.026.348 9.89 2.782 14.429.695 1.135 1.912 2.432 3.13 3.08 2.433 1.135 4.867 2.27 7.301 2.756 4.173.648 8.345.648 12.518.81 4.694 0 9.214-.324 13.908-.486 3.825-.162 7.824 0 11.823-.324 9.388-.81 25.035-.324 30.25-8.106 1.044-1.297 1.392-2.756 1.74-4.053 1.39-5.35 1.738-10.861 1.564-16.21-.174-4.378 0-10.862-3.477-14.429-1.217-1.297-2.782-2.107-4.868-2.27-.522-.162-1.217-.324-1.565-.324Zm-43.638-10.375c-.521-.162-.87-.324-1.043-.648-.87-.649-.87-1.622-.87-2.594.175-5.188.696-10.538 1.218-15.725.174-1.46-.348-13.942 0-14.104 2.086-.162 4.172-.648 6.259-.81 3.303-.325 6.432-.487 9.91-.649 1.216 0 2.433 0 3.477.162 2.434.486 3.303 1.135 3.477 3.08.347 3.567-.348 6.971-.174 10.538 0 4.377-.174 8.916-1.043 13.293-.174 1.783-.522 3.728-2.434 4.863-.87.487-2.087.81-3.13 1.135-4.346.973-8.866 1.459-13.213 1.621-.87 0-1.565 0-2.434-.162Zm-1.565 32.585c0-.487-.173-.81-.173-.973.521-1.783.695-3.566 1.043-5.512 8.171-1.459 16.168-1.945 24.687-1.297.174.649.522 1.297.522 1.784.348.81 0 1.783-.174 2.431-.521 2.918-2.26 4.053-5.737 4.053-3.651.162-7.128 0-10.78 0l-9.388-.486ZM617.618 87.192v.486c-6.085 12.969-11.822 25.776-17.733 38.745-1.39 3.242-3.13 6.647-3.999 10.051-.347 1.945-.521 3.89-.174 5.836.696 1.945 2.087 3.729 4.347 4.701 1.738.487 3.65.649 5.215.649 2.956 0 5.912.162 8.52-.487 4.172-.648 7.997-2.918 10.779-5.511 2.781-2.594 4.694-5.674 6.432-8.754 3.999-6.81 6.78-13.942 10.258-20.913 3.303-6.809 7.997-13.131 10.779-20.102 3.477-8.43 7.997-16.536 12.865-24.317 2.956-4.377 5.738-8.754 7.65-13.293 1.043-2.108 2.434-4.053 3.13-6.323.347-2.27.521-4.539.173-6.646-.521-1.621-.869-3.243-2.26-4.377-2.434-1.784-5.91-1.946-9.214-1.946-4.173.162-8.867.487-12.344 2.27-2.956 1.621-5.042 4.053-6.954 6.484l-6.26 8.268c-1.738 2.432-3.476 5.188-5.736 7.457-.87-.81-1.739-1.459-2.26-2.107-3.13-4.864-7.303-9.078-10.084-14.104-1.739-3.08-5.216-6.97-9.215-8.106-1.564-.648-3.65-.648-5.563-.648-2.956 0-5.737.162-8.52.486-3.998.324-8.344 1.297-9.909 4.053-1.217 2.432.522 5.188 1.913 7.62 9.214 13.617 18.428 27.072 28.164 40.528Z"/>
</svg>
