<?xml version="1.0" standalone="no"?>
<!DOCTYPE svg PUBLIC "-//W3C//DTD SVG 20010904//EN"
 "http://www.w3.org/TR/2001/REC-SVG-20010904/DTD/svg10.dtd">
<svg version="1.0" xmlns="http://www.w3.org/2000/svg"
 width="1290.000000pt" height="1290.000000pt" viewBox="0 0 1290.000000 1290.000000"
 preserveAspectRatio="xMidYMid meet">
<metadata>
Created by potrace 1.14, written by Peter Selinger 2001-2017
</metadata>
<g transform="translate(0.000000,1290.000000) scale(0.100000,-0.100000)"
fill="#000000" stroke="none">
<path d="M5591 10829 c-630 -123 -1105 -1063 -1147 -2269 -7 -201 2 -311 37
-449 45 -180 139 -364 262 -516 36 -44 64 -81 62 -83 -2 -2 -91 -21 -199 -43
-1211 -240 -2196 -701 -2817 -1319 -399 -397 -613 -809 -660 -1270 -34 -343
75 -614 366 -905 646 -646 2078 -1165 3945 -1429 723 -103 1387 -155 2247
-178 578 -15 795 -2 1101 63 855 182 1610 710 2129 1489 307 461 520 1000 618
1566 49 285 77 690 55 799 -120 591 -1510 1088 -3579 1280 l-73 7 64 67 c129
132 190 228 238 370 38 114 47 227 31 414 -39 466 -184 890 -429 1257 -116
174 -194 269 -328 404 -433 432 -984 690 -1594 745 -134 13 -266 12 -329 0z"/>
</g>
</svg>
