<svg xmlns="http://www.w3.org/2000/svg" viewBox="0 0 64 64"><g fill="none" stroke-linecap="square" stroke-miterlimit="10" stroke="#212121" stroke-width="4"><path d="M16.754 36a8.25 8.25 0 0 1 .59-.657L53.172 5.172a4 4 0 0 1 5.657 5.657L28.657 46.657a9.16 9.16 0 0 1-.657.579" stroke-linecap="butt"/><path d="M24.709 39.291C22.587 37.169 19.766 36 16.764 36s-5.823 1.169-7.945 3.291C4.601 43.509 4 60 4 60s16.491-.601 20.709-4.82A11.16 11.16 0 0 0 28 47.236c0-3.002-1.169-5.823-3.291-7.945z"/></g></svg>
