<svg xmlns="http://www.w3.org/2000/svg" viewBox="0 0 48 48"><g stroke-linecap="round" stroke-width="4" fill="none" stroke="currentColor" stroke-linejoin="round" class="nc-icon-wrapper"><path d="M28.114,34.246l-7.04-2.817a2,2,0,0,1-1.238-1.574l-.512-3.585A7.994,7.994,0,0,0,24,19V13.073a4.367,4.367,0,0,0-4.364-4.364L18.507,6.45A.843.843,0,0,0,17.5,6.044L12.112,7.967A6.658,6.658,0,0,0,8,13.8V19a7.994,7.994,0,0,0,4.676,7.27l-.512,3.585a2,2,0,0,1-1.238,1.574l-7.04,2.817A3,3,0,0,0,2,37.031V42H30V37.031A3,3,0,0,0,28.114,34.246Z"></path> <path d="M36,42H46V35.1a3,3,0,0,0-1.975-2.819l-7.9-2.872a2,2,0,0,1-1.3-1.6l-.506-3.543A7.994,7.994,0,0,0,39,17V11.073a4.367,4.367,0,0,0-4.364-4.364L33.507,4.45A.843.843,0,0,0,32.5,4.044L27.112,5.967"></path></g></svg>