<svg xmlns="http://www.w3.org/2000/svg" viewBox="0 0 64 64"><g stroke-linecap="round" stroke-width="4" fill="none" stroke="currentColor" stroke-linejoin="round" class="nc-icon-wrapper"><rect x="6" y="6" width="8" height="8"></rect><rect x="21" y="6" width="8" height="8"></rect><rect x="36" y="6" width="8" height="8"></rect><rect x="51" y="6" width="8" height="8"></rect><rect x="6" y="21" width="8" height="8"></rect><rect x="21" y="21" width="8" height="8"></rect><rect x="36" y="21" width="8" height="8"></rect><rect x="51" y="21" width="8" height="8"></rect><rect x="6" y="36" width="8" height="8"></rect><rect x="21" y="36" width="8" height="8"></rect><rect x="36" y="36" width="8" height="8"></rect><rect x="51" y="36" width="8" height="8"></rect><rect x="6" y="51" width="8" height="8"></rect><rect x="21" y="51" width="8" height="8"></rect><rect x="36" y="51" width="8" height="8"></rect><rect x="51" y="51" width="8" height="8"></rect></g></svg>