<svg xmlns="http://www.w3.org/2000/svg" viewBox="0 0 64 64"><g fill="currentColor" class="nc-icon-wrapper"><path d="M32,9.045c7.476,0,8.362.029,11.314.163a15.525,15.525,0,0,1,5.2.964,9.28,9.28,0,0,1,5.314,5.314,15.525,15.525,0,0,1,.964,5.2c.134,2.952.163,3.838.163,11.314s-.029,8.362-.163,11.314a15.525,15.525,0,0,1-.964,5.2,9.28,9.28,0,0,1-5.314,5.314,15.525,15.525,0,0,1-5.2.964c-2.952.134-3.837.163-11.314.163s-8.362-.029-11.314-.163a15.525,15.525,0,0,1-5.2-.964,9.28,9.28,0,0,1-5.314-5.314,15.525,15.525,0,0,1-.964-5.2C9.074,40.362,9.045,39.476,9.045,32s.029-8.362.163-11.314a15.525,15.525,0,0,1,.964-5.2,9.28,9.28,0,0,1,5.314-5.314,15.525,15.525,0,0,1,5.2-.964c2.952-.134,3.838-.163,11.314-.163M32,4c-7.6,0-8.558.032-11.544.168a20.553,20.553,0,0,0-6.8,1.3A14.324,14.324,0,0,0,5.47,13.659a20.553,20.553,0,0,0-1.3,6.8C4.032,23.442,4,24.4,4,32s.032,8.558.168,11.544a20.553,20.553,0,0,0,1.3,6.8,14.324,14.324,0,0,0,8.189,8.189,20.553,20.553,0,0,0,6.8,1.3C23.442,59.968,24.4,60,32,60s8.558-.032,11.544-.168a20.553,20.553,0,0,0,6.8-1.3,14.324,14.324,0,0,0,8.189-8.189,20.553,20.553,0,0,0,1.3-6.8C59.968,40.558,60,39.6,60,32s-.032-8.558-.168-11.544a20.553,20.553,0,0,0-1.3-6.8A14.324,14.324,0,0,0,50.341,5.47a20.553,20.553,0,0,0-6.8-1.3C40.558,4.032,39.6,4,32,4Z"></path><path d="M32,17.622A14.378,14.378,0,1,0,46.378,32,14.378,14.378,0,0,0,32,17.622Zm0,23.711A9.333,9.333,0,1,1,41.333,32,9.332,9.332,0,0,1,32,41.333Z"></path><circle cx="46.946" cy="17.054" r="3.36"></circle></g></svg>