<svg xmlns="http://www.w3.org/2000/svg" viewBox="0 0 64 64"><g stroke-linecap="round" stroke-width="4" fill="none" stroke="currentColor" stroke-linejoin="round" class="nc-icon-wrapper"><path d="M23.4,39.2c-0.7,0-1.3,0.3-1.7,0.8s-0.6,1.3-0.6,2.3c0,2.1,0.8,3.1,2.3,3.1 c0.7,0,1.4-0.2,2.4-0.5v1.7c-0.8,0.3-1.6,0.5-2.6,0.5c-1.4,0-2.4-0.4-3.1-1.2c-0.7-0.8-1.1-2-1.1-3.5c0-1,0.2-1.8,0.5-2.5 s0.9-1.3,1.5-1.7c0.7-0.4,1.4-0.6,2.3-0.6c0.9,0,1.8,0.2,2.7,0.7l-0.6,1.6c-0.3-0.2-0.7-0.3-1-0.4S23.8,39.2,23.4,39.2z" stroke-linejoin="miter" stroke="none" fill="currentColor"></path> <path d="M33.7,47L33,44.8h-3.4L29,47h-2.1l3.3-9.3h2.4l3.3,9.3H33.7z M32.6,43.1 c-0.6-2-1-3.1-1.1-3.4c-0.1-0.3-0.1-0.5-0.2-0.6c-0.1,0.5-0.5,1.9-1.2,4H32.6z" stroke-linejoin="miter" stroke="none" fill="currentColor"></path> <path d="M44.9,42.3c0,1.5-0.4,2.7-1.3,3.5c-0.9,0.8-2.1,1.2-3.8,1.2h-2.6v-9.3h2.9 c1.5,0,2.7,0.4,3.5,1.2C44.5,39.7,44.9,40.8,44.9,42.3z M42.9,42.3c0-2-0.9-3-2.6-3h-1v6h0.8C42,45.4,42.9,44.4,42.9,42.3z" stroke-linejoin="miter" stroke="none" fill="currentColor"></path> <polyline data-cap="butt" points="40,2 40,18 56,18 "></polyline> <polyline points="56,32 56,18 40,2 8,2 8,32 "></polyline> <polyline points="8,53 8,62 56,62 56,53 "></polyline> <line data-cap="butt" x1="61" y1="32" x2="3" y2="32"></line> <polyline data-cap="butt" points="8,27 3,32 3,53 61,53 61,32 56,27 "></polyline></g></svg>