<svg xmlns="http://www.w3.org/2000/svg" viewBox="0 0 64 64"><g stroke-linecap="round" stroke-width="4" fill="none" stroke="currentColor" stroke-linejoin="round" class="nc-icon-wrapper"><path d="M54,24 c0-12.15-9.85-22-22-22s-22,9.85-22,22c0,8.545,4.882,15.936,12,19.579V55h20V43.579C49.118,39.936,54,32.545,54,24z"></path> <path d="M20,30 c0-2.209,1.791-4,4-4s4,1.791,4,4c0,0.729,0,4,0,4s-2.52,0-4,0C21.791,34,20,32.209,20,30z"></path> <line x1="28" y1="34" x2="28" y2="49"></line> <path d="M44,30 c0-2.209-1.791-4-4-4s-4,1.791-4,4c0,0.729,0,4,0,4s2.52,0,4,0C42.209,34,44,32.209,44,30z"></path> <line x1="36" y1="34" x2="36" y2="49"></line> <line x1="28" y1="34" x2="36" y2="34"></line> <line x1="22" y1="61" x2="42" y2="61"></line></g></svg>