<svg xmlns="http://www.w3.org/2000/svg" viewBox="0 0 64 64"><g stroke-linecap="round" stroke-width="4" fill="none" stroke="currentColor" stroke-linejoin="round" class="nc-icon-wrapper"><rect x="3" y="8" width="58" height="48"></rect><line x1="3" y1="17" x2="61" y2="17"></line><line x1="61" y1="47" x2="3" y2="47"></line><line data-cap="butt" x1="32" y1="8" x2="32" y2="17"></line><line data-cap="butt" x1="32" y1="47" x2="32" y2="56"></line><line data-cap="butt" x1="52" y1="8" x2="52" y2="17"></line><line data-cap="butt" x1="42" y1="8" x2="42" y2="17"></line><line data-cap="butt" x1="22" y1="8" x2="22" y2="17"></line><line data-cap="butt" x1="12" y1="8" x2="12" y2="17"></line><line data-cap="butt" x1="52" y1="47" x2="52" y2="56"></line><line data-cap="butt" x1="42" y1="47" x2="42" y2="56"></line><line data-cap="butt" x1="22" y1="47" x2="22" y2="56"></line><line data-cap="butt" x1="12" y1="47" x2="12" y2="56"></line><polygon points="27 24 41 32 27 40 27 24"></polygon></g></svg>